<!-- icon666.com - MILLIONS vector ICONS FREE --><svg id="spoon_and_fork" viewBox="0 0 32 32" xmlns="http://www.w3.org/2000/svg" data-name="spoon and fork"><g fill-rule="evenodd"><path d="m19.2 18.1a.567.567 0 0 0 -.567.567v4.267a.567.567 0 0 0 1.134 0v-4.267a.567.567 0 0 0 -.567-.567z"></path><path d="m12.8 18.1a.567.567 0 0 0 -.567.567v4.267a.567.567 0 0 0 1.134 0v-4.267a.567.567 0 0 0 -.567-.567z"></path><path d="m12.8 8.5c-.936 0-1.633 1-1.633 2.167s.7 2.167 1.633 2.167 1.633-1 1.633-2.167-.697-2.167-1.633-2.167z"></path><path d="m16 1.5a14.5 14.5 0 1 0 14.5 14.5 14.507 14.507 0 0 0 -14.5-14.5zm-2.7 12.275v3.406a1.568 1.568 0 0 1 1.067 1.485v4.267a1.567 1.567 0 0 1 -3.134 0v-4.266a1.568 1.568 0 0 1 1.067-1.485v-3.407a3.08 3.08 0 0 1 -2.133-3.108 2.944 2.944 0 0 1 2.633-3.167 2.944 2.944 0 0 1 2.633 3.167 3.08 3.08 0 0 1 -2.133 3.108zm8.533-2.575a2.635 2.635 0 0 1 -2.133 2.586v3.4a1.568 1.568 0 0 1 1.067 1.485v4.267a1.567 1.567 0 0 1 -3.134 0v-4.271a1.568 1.568 0 0 1 1.067-1.485v-3.4a2.635 2.635 0 0 1 -2.133-2.582v-3.2a.5.5 0 0 1 1 0v3.2a1.635 1.635 0 0 0 1.133 1.555v-4.755a.5.5 0 0 1 1 0v4.755a1.635 1.635 0 0 0 1.133-1.555v-3.2a.5.5 0 0 1 1 0z"></path></g></svg>