<!-- icon666.com - MILLIONS vector ICONS FREE --><svg id="_x30_1" enable-background="new 0 0 512 512" viewBox="0 0 512 512" xmlns="http://www.w3.org/2000/svg"><path d="m256 0c-141.385 0-256 114.615-256 256s114.615 256 256 256 256-114.615 256-256-114.615-256-256-256zm-54.844 412c-13.461-.001-24.375-10.906-24.375-24.367 0-1.349.109-2.672.32-3.961 5.382-32.93 10.108-65.964 12.172-99.267l2.177-35.118c.318-5.127 4.569-9.123 9.706-9.123s9.388 3.996 9.706 9.123l2.177 35.118c2.064 33.303 6.79 66.337 12.172 99.267.211 1.289.32 2.612.32 3.961 0 13.461-10.914 24.366-24.375 24.367zm0-190.125c-16.194 0-45.703-9.001-45.703-42.656s14.288-79.219 45.703-79.219 45.703 45.564 45.703 79.219-29.509 42.656-45.703 42.656zm109.688 190.125c-13.461-.001-24.375-10.906-24.375-24.367 0-1.349.109-2.672.32-3.961 5.382-32.93 10.108-65.964 12.172-99.267l2.177-35.118c.318-5.127 4.569-9.123 9.706-9.123s9.388 3.996 9.706 9.123l2.177 35.118c2.064 33.303 6.79 66.337 12.172 99.267.211 1.289.32 2.612.32 3.961 0 13.461-10.914 24.366-24.375 24.367zm45.703-232.781c0 33.655-29.509 42.656-45.703 42.656s-45.703-9.001-45.703-42.656v-70.078c0-5.048 4.092-9.141 9.141-9.141s9.141 4.092 9.141 9.141v54.844c0 5.048 4.092 9.141 9.141 9.141s9.141-4.092 9.141-9.141v-54.844c0-5.048 4.092-9.141 9.141-9.141s9.141 4.092 9.141 9.141v54.844c0 5.048 4.092 9.141 9.141 9.141s9.141-4.092 9.141-9.141v-54.844c0-5.048 4.092-9.141 9.141-9.141s9.141 4.092 9.141 9.141v70.078z"></path></svg>