<!-- icon666.com - MILLIONS vector ICONS FREE --><svg xmlns="http://www.w3.org/2000/svg" id="Layer_1" data-name="Layer 1" viewBox="0 0 64 64"><path d="M61.75,31.34,55,23.62V10a1,1,0,0,0-1-1H40.38L32.66,2.25a1,1,0,0,0-1.32,0L23.62,9H10a1,1,0,0,0-1,1V23.62L2.25,31.34a1,1,0,0,0,0,1.32L9,40.38V54a1,1,0,0,0,1,1H23.62l7.72,6.75a1,1,0,0,0,1.32,0L40.38,55H54a1,1,0,0,0,1-1V40.38l6.75-7.72A1,1,0,0,0,61.75,31.34ZM29,23a6,6,0,0,1-5,5.91v8.27A3,3,0,0,1,26,40v8a3,3,0,0,1-6,0V40a3,3,0,0,1,2-2.82V28.91A6,6,0,0,1,17,23V14h2v9a4,4,0,0,0,3,3.86V14h2V26.86A4,4,0,0,0,27,23V14h2Zm18,0a6,6,0,0,1-5,5.91v8.27A3,3,0,0,1,44,40v8a3,3,0,0,1-6,0V40a3,3,0,0,1,2-2.82V28.91A6,6,0,0,1,35,23V19a6,6,0,0,1,12,0Z"></path></svg>