<?xml version="1.0" encoding="utf-8"?>
<!-- Generator: Adobe Illustrator 28.1.0, SVG Export Plug-In . SVG Version: 6.00 Build 0)  -->
<svg version="1.1" id="Слой_1" xmlns="http://www.w3.org/2000/svg" xmlns:xlink="http://www.w3.org/1999/xlink" x="0px" y="0px"
	 viewBox="0 0 512 512" style="enable-background:new 0 0 512 512;" xml:space="preserve">
<style type="text/css">
	.st0{fill:#FFFFFF;}
</style>
<path d="M240.4,1c-1.6,0.2-6.6,0.9-11,1.5c-76.8,10-142,68.2-160.9,143.8c-6.2,24.8-7.5,50.6-3.7,69.7c10.5,51.9,55.7,129.4,130,223
	c24.7,31.1,59.4,71.9,61.1,71.9c0.5,0,6.4-6.4,13.2-14.3c88.6-102.1,152.5-198.3,172.2-259.5c6.2-19.4,7.8-28.6,7.8-45.5
	c0.1-49.9-20.4-98.3-56.9-134.8c-29-28.9-64.5-47.1-106.3-54.1C276.7,1.4,246.7,0.1,240.4,1z M272.6,112.9
	c40.1,8.2,68.3,45.1,65.8,85.8c-0.8,13-2.7,19.7-8.7,32c-26.5,53.6-98.1,62.1-137.4,16.3c-24.6-28.6-25.7-72.3-2.7-102.8
	C209,118.7,241.5,106.5,272.6,112.9z"/>
<circle cx="260" cy="195.6" r="88.7"/>
<g>
	<path class="st0" d="M161.2,138.4v99.4h-13.9v-84.2l-14.2,8.7v-14.4l14.2-9.4H161.2z"/>
	<path class="st0" d="M212.2,238.8c-9.5,0-16.6-2.5-21.3-7.6c-4.7-5.1-7.1-12-7.1-20.6v-45.2c0-8.8,2.4-15.7,7.2-20.7
		c4.8-5,11.8-7.5,21.2-7.5c9.4,0,16.5,2.5,21.2,7.5c4.8,5,7.1,11.9,7.1,20.7v45.2c0,8.8-2.4,15.7-7.1,20.7
		C228.6,236.3,221.6,238.8,212.2,238.8z M212.2,225.5c5.1,0,8.8-1.3,11-4s3.4-6.3,3.4-11v-45.2c0-4.7-1.1-8.4-3.4-11
		c-2.3-2.6-5.9-4-11-4c-5.1,0-8.8,1.3-11,4c-2.3,2.6-3.4,6.3-3.4,11v45.2c0,4.6,1.1,8.3,3.4,11S207.1,225.5,212.2,225.5z"/>
	<path class="st0" d="M286.1,238.8c-5.6,0-10.5-1-14.7-3c-4.2-2-7.6-5-10.2-8.8c-2.6-3.8-4.2-8.5-4.9-13.9h14.2
		c0.6,4.3,2.3,7.4,5.1,9.4s6.2,3,10.5,3c4.6,0,8.2-1.2,10.7-3.7c2.6-2.5,3.8-5.9,3.8-10.4v-3c0-5-1.2-8.8-3.6-11.5
		c-2.4-2.7-5.8-4.1-10.3-4.1h-7v-13.3h7c3.9,0,6.9-1.2,9.1-3.5s3.2-5.6,3.2-9.8V163c0-3.9-1.1-6.9-3.4-9.1c-2.3-2.1-5.5-3.2-9.6-3.2
		c-3.5,0-6.5,1-8.9,3c-2.4,2-4.1,5.1-5,9.4h-14.2c1.4-8.2,4.6-14.5,9.5-19c4.9-4.5,11.1-6.7,18.6-6.7c8.6,0,15.2,2.3,19.9,6.8
		c4.7,4.5,7,10.9,7,19.1v1.6c0,5-1.3,9.3-4,13c-2.7,3.7-6.5,6.4-11.4,8.1c5.4,1.1,9.6,3.8,12.6,8c3,4.2,4.5,9.5,4.5,15.9v1.6
		c0,8.7-2.5,15.4-7.5,20.2C302.1,236.4,295.1,238.8,286.1,238.8z"/>
	<path class="st0" d="M330.6,237.8v-10.4c4.7,0,8.1-1.6,10.2-4.9c2.1-3.3,3.2-8.6,3.2-16v-46.8h11v46.1c0,11.2-1.8,19.3-5.5,24.4
		c-3.7,5-9.6,7.6-17.8,7.6H330.6z M350.8,170.1v-10.4h37.4v10.4H350.8z M382.4,237.8v-78.1h11v78.1H382.4z"/>
</g>
</svg>
